# AST/ASF file generated using VICON BodyLanguage
# -----------------------------------------------
:version 1.10
:name VICON
:units
  mass 1.0
  length 0.45
  angle deg
:documentation
   .ast/.asf automatically generated from VICON data using
   VICON BodyBuilder and BodyLanguage model FoxedUp or BRILLIANT.MOD
:root
   order TX TY TZ RX RY RZ
   axis XYZ
   position 0 0 0  
   orientation 0 0 0 
:bonedata
  begin
     id 1 
     name lhipjoint
     direction 0.558404 -0.748506 0.357664 
     length 2.4234 
     axis 0 0 0  XYZ
  end
  begin
     id 2 
     name lfemur
     direction 0.34202 -0.939693 0  
     length 7.14567  
     axis 0 0 20  XYZ
    dof rx ry rz
    limits (-160.0 20.0)
           (-70.0 70.0)
           (-60.0 70.0)
  end
  begin
     id 3 
     name ltibia
     direction 0.34202 -0.939693 0   
     length 8.13956   
     axis 0 0 20   XYZ
    dof rx
    limits (-10.0 170.0)
  end
  begin
     id 4 
     name lfoot
     direction 0.0791314 -0.217412 0.972867   
     length 2.00134   
     axis -90 7.62852e-016 20   XYZ
    dof rx rz
    limits (-45.0 90.0)
           (-70.0 20.0)
  end
  begin
     id 5 
     name ltoes
     direction 1.53547e-011 -4.21922e-011 1   
     length 1.00735   
     axis -90 7.62852e-016 20   XYZ
    dof rx
    limits (-90.0 20.0)
  end
  begin
     id 6 
     name rhipjoint
     direction -0.496392 -0.78327 0.374276   
     length 2.31584  
     axis 0 0 0  XYZ 
  end
  begin
     id 7 
     name rfemur
     direction -0.34202 -0.939693 0   
     length 7.47417   
     axis 0 0 -20   XYZ
    dof rx ry rz
    limits (-160.0 20.0)
           (-70.0 70.0)
           (-70.0 60.0)
  end
  begin
     id 8 
     name rtibia
     direction -0.34202 -0.939693 0   
     length 7.69071   
     axis 0 0 -20   XYZ
    dof rx
    limits (-10.0 170.0)
 end
 begin
     id 9 
     name rfoot
     direction -0.103069 -0.28318 0.953512   
     length 2.16135  
     axis -90 -7.62852e-016 -20   XYZ
    dof rx rz
    limits (-45.0 90.0)
           (-20.0 70.0)
  end
  begin
     id 10 
     name rtoes
     direction -1.53581e-011 -4.21904e-011 1   
     length 1.07867   
     axis -90 -7.62852e-016 -20   XYZ
    dof rx
    limits (-90.0 20.0)
  end
  begin
     id 11 
     name lowerback
     direction -0.0258961 0.994776 -0.0987407   
     length 2.19412   
     axis 0 0 0   XYZ
    dof rx ry rz
    limits (-20.0 45.0)
           (-30.0 30.0)
           (-30.0 30.0)
  end
  begin
     id 12 
     name upperback
     direction 0.0402454 0.999185 0.00320666   
     length 2.18445   
     axis 0 0 0   XYZ
    dof rx ry rz
    limits (-20.0 45.0)
           (-30.0 30.0)
           (-30.0 30.0)
  end
  begin
     id 13 
     name thorax
     direction 0.0519376 0.997415 0.0496558   
     length 2.21487   
     axis 0 0 0   XYZ
    dof rx ry rz
    limits (-20.0 45.0)
           (-30.0 30.0)
           (-30.0 30.0)
  end
  begin
     id 14 
     name lowerneck
     direction -0.0921276 0.983211 0.157506   
     length 1.61201   
     axis 0 0 0   XYZ
    dof rx ry rz
    limits (-20.0 45.0)
           (-30.0 30.0)
           (-30.0 30.0)
  end
  begin
     id 15 
     name upperneck
     direction 0.0820814 0.98162 -0.172292   
     length 1.65275   
     axis 0 0 0   XYZ
    dof rx ry rz
    limits (-20.0 45.0)
           (-30.0 30.0)
           (-30.0 30.0)
  end
  begin
     id 16
     name head
     direction 0.0336554 0.996413 -0.0776455  
     length 1.66415  
     axis 0 0 0   XYZ
    dof rx ry rz
    limits (-20.0 45.0)
           (-30.0 30.0)
           (-30.0 30.0)
  end
  begin
     id 17 
     name lclavicle
     direction 0.94696 0.284418 -0.149576  
     length 3.41447  
     axis 0 0 0   XYZ
    dof ry rz
    limits (-20.0 10.0)
           (0.0 20.0)
  end
  begin
     id 18 
     name lhumerus
     direction 1 -0.000130264 -9.81312e-005   
     length 5.19964   
     axis 180 -30 -90   XYZ
    dof rx ry rz
    limits (-60.0 90.0)
           (-90.0 90.0)
           (-90.0 90.0)
  end
  begin
     id 19
     name lradius
     direction 1 -4.48961e-011 1.43854e-026   
     length 3.32189   
     axis 180 -30 -90   XYZ
    dof rx
    limits (-10.0 170.0)
  end
  begin
     id 20
     name lwrist
     direction 1 -4.48958e-011 3.1502e-026   
     length 1.66095   
     axis -1.97692e-014 90 90   XYZ
    dof ry
    limits (-180.0 0.0)
 end
  begin
     id 21 
     name lhand
     direction 1 -4.48927e-011 6.3004e-026   
     length 0.645616   
     axis -4.02019e-014 90 90   XYZ
    dof rx rz
    limits (-90.0 90.0)
           (-45.0 45.0)
  end
  begin
     id 22 
     name lfingers
     direction 1 -4.4904e-011 1.26008e-025   
     length 0.520512   
     axis -8.04039e-014 90 90   XYZ
    dof rx
    limits (0.0 90.0)
  end
  begin
     id 23
     name lthumb
     direction 0.707107 -6.34947e-011 0.707107   
     length 0.747354   
     axis -90 45 2.85299e-015   XYZ
    dof rx rz
    limits (-45.0 45.0)
           (-45.0 45.0)
  end
  begin
     id 24 
     name rclavicle
     direction -0.909391 0.383475 -0.161107   
     length 3.25176  
     axis 0 0 0   XYZ 
    dof ry rz
    limits (-10.0 20.0)
           (-20.0 0.0)
  end
  begin
     id 25 
     name rhumerus
     direction -1 -4.48965e-011 -1.81384e-027  
     length 5.6595   
     axis 180 30 90   XYZ
    dof rx ry rz
    limits (-90.0 60.0)
           (-90.0 90.0)
           (-90.0 90.0)
  end
  begin
     id 26 
     name rradius
     direction -1 -4.48996e-011 -8.09397e-027   
     length 3.37604   
     axis 180 30 90   XYZ
    dof rx
    limits (-10.0 170.0)
  end
  begin
     id 27 
     name rwrist
     direction -1 -4.48927e-011 -1.56669e-026   
     length 1.68802   
     axis 1.21142e-014 -90 -90   XYZ
    dof ry
    limits (-180.0 0.0)
  end
  begin
     id 28
     name rhand
     direction -1 -4.48912e-011 -3.13339e-026   
     length 0.824702   
     axis 1.99937e-014 -90 -90   XYZ
    dof rx rz
    limits (-90.0 90.0)
           (-45.0 45.0)
  end
  begin
     id 29
     name rfingers
     direction -1 -4.49011e-011 -6.26677e-026   
     length 0.664896   
     axis 3.99874e-014 -90 -90   XYZ
    dof rx
    limits (0.0 90.0)
  end
  begin
     id 30
     name rthumb
     direction -0.707107 -6.34931e-011 0.707107   
     length 0.954662   
     axis -90 -45 -2.85299e-015   XYZ
    dof rx rz
    limits (-45.0 45.0)
           (-45.0 45.0)
  end
:hierarchy
  begin
    root lhipjoint rhipjoint lowerback
    lhipjoint lfemur
    lfemur ltibia
    ltibia lfoot
    lfoot ltoes
    rhipjoint rfemur
    rfemur rtibia
    rtibia rfoot
    rfoot rtoes
    lowerback upperback
    upperback thorax
    thorax lowerneck lclavicle rclavicle
    lowerneck upperneck
    upperneck head
    lclavicle lhumerus
    lhumerus lradius
    lradius lwrist
    lwrist lhand lthumb
    lhand lfingers
    rclavicle rhumerus
    rhumerus rradius
    rradius rwrist
    rwrist rhand rthumb
    rhand rfingers
  end

#!OML:ASF F:\VICON\USERDATA\INSTALL\rory3\rory3.ASF
:FULLY-SPECIFIED
:DEGREES
125
root 11.1781 17.4708 -36.5984 9.5009 -18.8189 -4.44807
lowerback 8.01585 -0.26239 0.365029
upperback -2.27778 -0.00950974 4.83093
thorax -6.90922 0.0875332 4.89927
lowerneck -14.3013 -4.12138 -13.3793
upperneck 18.9835 -4.86022 10.4511
head 8.87641 -2.21982 5.23781
rclavicle 5.48646e-014 3.97569e-015
rhumerus -35.2891 -12.5691 -74.2161
rradius 29.593
rwrist -13.5339
rhand -13.7479 17.2531
rfingers 7.12502
rthumb 12.3722 -12.3608
lclavicle 5.48646e-014 3.97569e-015
lhumerus -32.4273 18.3614 84.4633
lradius 24.6824
lwrist -9.47644
lhand -2.76622 36.5753
lfingers 7.12502
lthumb 22.9383 65.2307
rfemur -8.69475 2.65022 28.3325
rtibia 35.5511
rfoot -30.1895 -10.7858
rtoes 15.6526
lfemur -38.2552 -5.99485 -8.53587
ltibia 58.2905
lfoot -18.0102 -1.96178
ltoes -3.19571
126
root 11.1726 17.479 -36.5188 9.71371 -19.0091 -4.42155
lowerback 7.72528 -0.203212 0.465991
upperback -2.02711 0.0543551 4.73758
thorax -6.47959 0.10471 4.72004
lowerneck -14.6626 -4.19869 -13.1244
upperneck 18.8685 -4.94294 10.3184
head 8.90491 -2.24169 5.13187
rclavicle 2.49475e-014 6.04305e-014
rhumerus -34.7449 -12.662 -74.4052
rradius 29.4923
rwrist -13.4041
rhand -13.9081 17.1132
rfingers 7.12502
rthumb 12.2177 -12.51
lclavicle 2.49475e-014 6.04305e-014
lhumerus -31.9558 18.3561 84.4786
lradius 24.9237
lwrist -9.16102
lhand -2.50459 37.366
lfingers 7.12502
lthumb 23.1893 65.9901
rfemur -8.44144 2.65626 28.1483
rtibia 35.1535
rfoot -30.2162 -10.5367
rtoes 15.8328
lfemur -38.6981 -6.36704 -8.2568
ltibia 57.445
lfoot -18.0727 -1.82116
ltoes -3.09969
127
root 11.1628 17.4849 -36.4663 9.98302 -18.7478 -4.33882
lowerback 7.87425 -0.256272 0.429568
upperback -2.03413 -0.0174286 4.69556
thorax -6.56657 0.0711676 4.70858
lowerneck -14.6139 -4.30556 -12.9683
upperneck 18.6215 -5.09326 10.2025
head 8.82467 -2.31084 5.0386
rclavicle -1.43125e-014 -1.59028e-015
rhumerus -34.675 -12.3059 -74.6387
rradius 29.914
rwrist -13.7249
rhand -13.8856 16.8397
rfingers 7.12502
rthumb 12.2395 -12.7822
lclavicle -1.43125e-014 -1.59028e-015
lhumerus -31.6647 18.3172 84.4705
lradius 25.205
lwrist -8.62842
lhand -2.44676 38.0193
lfingers 7.12502
lthumb 23.2448 66.6364
rfemur -8.33662 2.59427 28.0883
rtibia 34.7281
rfoot -30.5863 -10.4766
rtoes 17.2005
lfemur -39.3871 -6.69336 -7.95739
ltibia 56.581
lfoot -18.0075 -1.98096
ltoes -4.67886
128
root 11.1551 17.4906 -36.3966 10.1166 -18.6987 -4.43343
lowerback 8.36418 -0.205667 0.526499
upperback -2.15979 0.0833011 4.71045
thorax -6.98995 0.123522 4.66885
lowerneck -14.4391 -4.3908 -12.99
upperneck 18.5849 -5.23534 10.2378
head 8.80031 -2.38001 5.03662
rclavicle 8.24956e-015 7.95139e-016
rhumerus -34.4523 -13.4815 -74.0209
rradius 28.9654
rwrist -12.5255
rhand -13.391 17.6576
rfingers 7.12502
rthumb 12.7162 -11.9352
lclavicle 8.24956e-015 7.95139e-016
lhumerus -31.6873 18.1013 84.5137
lradius 25.382
lwrist -8.0016
lhand -2.57709 38.7023
lfingers 7.12502
lthumb 23.1198 67.3351
rfemur -7.98144 2.71957 28.1836
rtibia 34.3347
rfoot -30.7646 -10.6035
rtoes 17.4058
lfemur -39.728 -7.05559 -7.50422
ltibia 55.6683
lfoot -17.9422 -2.23068
ltoes -4.36204
129
root 11.1487 17.4945 -36.3261 10.3884 -18.6846 -4.56393
lowerback 8.23275 -0.21101 0.782498
upperback -1.95423 0.0855974 4.63602
thorax -6.6942 0.106994 4.43478
lowerneck -14.6421 -4.45893 -12.9429
upperneck 18.444 -5.34884 10.438
head 8.80842 -2.40332 5.08066
rclavicle 3.51849e-014 1.66979e-014
rhumerus -34.3796 -12.81 -74.546
rradius 29.778
rwrist -13.2435
rhand -13.3121 17.352
rfingers 7.12502
rthumb 12.7923 -12.2361
lclavicle 3.51849e-014 1.66979e-014
lhumerus -31.5441 19.4456 83.5582
lradius 23.233
lwrist -12.6609
lhand -5.34537 30.6389
lfingers 7.12502
lthumb 20.4616 59.5808
rfemur -7.80558 2.76603 28.3114
rtibia 33.9457
rfoot -30.4389 -11.0512
rtoes 15.3792
lfemur -40.2021 -7.54684 -6.92931
ltibia 54.666
lfoot -17.7009 -2.35637
ltoes -1.91092
130
root 11.1433 17.4975 -36.2637 10.8824 -19.0684 -4.614
lowerback 8.43503 -0.120943 0.574489
upperback -2.1231 0.204741 4.74495
thorax -7.0012 0.181596 4.66153
lowerneck -14.7247 -4.47306 -13.1052
upperneck 18.5 -5.33007 10.4723
head 8.84609 -2.40083 5.12364
rclavicle -1.38155e-014 -4.85035e-014
rhumerus -34.4768 -11.9415 -74.6832
rradius 30.1893
rwrist -13.6214
rhand -13.4764 17.0574
rfingers 7.12502
rthumb 12.6339 -12.5405
lclavicle -1.38155e-014 -4.85035e-014
lhumerus -31.841 19.7997 83.5112
lradius 23.7547
lwrist -12.0818
lhand -5.16894 31.1062
lfingers 7.12502
lthumb 20.6311 60.0298
rfemur -7.91571 3.10255 28.2114
rtibia 33.5352
rfoot -30.1391 -11.0108
rtoes 14.9993
lfemur -40.8424 -7.80266 -6.43584
ltibia 53.6315
lfoot -17.6021 -2.0162
ltoes -1.50751
131
root 11.1367 17.5238 -36.1944 11.4714 -19.868 -4.64671
lowerback 8.28164 0.117856 0.454393
upperback -2.15443 0.503298 4.67476
thorax -6.96957 0.331926 4.61038
lowerneck -14.8189 -4.50174 -13.0834
upperneck 18.3881 -5.37122 10.5472
head 8.83224 -2.40752 5.13799
rclavicle 1.25234e-014 -3.97569e-015
rhumerus -34.1666 -11.7925 -74.873
rradius 30.1363
rwrist -13.6692
rhand -13.7169 16.9707
rfingers 7.12502
rthumb 12.4021 -12.6414
lclavicle 1.25234e-014 -3.97569e-015
lhumerus -31.7709 20.0175 83.3546
lradius 23.8936
lwrist -11.8279
lhand -5.34948 30.7909
lfingers 7.12502
lthumb 20.4576 59.7332
rfemur -8.07749 3.64562 27.8991
rtibia 33.1203
rfoot -30.2031 -10.0821
rtoes 17.9885
lfemur -41.326 -7.7983 -6.04806
ltibia 52.5323
lfoot -17.6576 -1.60152
ltoes -2.41903
132
root 11.1346 17.5331 -36.1054 11.5364 -19.8022 -4.55632
lowerback 8.28707 0.0799804 0.614016
upperback -2.03054 0.456607 4.54333
thorax -6.83336 0.296591 4.38248
lowerneck -14.7027 -4.52975 -13.0083
upperneck 18.2108 -5.4528 10.6487
head 8.762 -2.43241 5.14722
rclavicle -1.71949e-014 1.98785e-014
rhumerus -33.8788 -12.0015 -74.9559
rradius 30.0228
rwrist -13.6012
rhand -13.7658 17.0524
rfingers 7.12502
rthumb 12.355 -12.5625
lclavicle -1.71949e-014 1.98785e-014
lhumerus -31.3914 19.9022 83.2708
lradius 23.6069
lwrist -11.7544
lhand -5.41167 30.6581
lfingers 7.12502
lthumb 20.3978 59.6067
rfemur -7.63535 3.50377 27.6926
rtibia 32.652
rfoot -30.2953 -9.63272
rtoes 19.9045
lfemur -41.5553 -8.61514 -5.71336
ltibia 51.5212
lfoot -17.5724 -1.58194
ltoes -1.8032
133
root 11.1273 17.5336 -36.0417 11.7995 -19.3895 -4.4337
lowerback 8.06285 -0.0153136 0.755557
upperback -1.82885 0.317701 4.36967
thorax -6.47697 0.213818 4.12822
lowerneck -14.5934 -4.62921 -12.8924
upperneck 17.8027 -5.65087 10.8734
head 8.63329 -2.49584 5.17271
rclavicle 9.34288e-015 -5.88403e-014
rhumerus -33.4915 -12.3368 -75.1548
rradius 30.1326
rwrist -13.5793
rhand -13.6403 17.0546
rfingers 7.12502
rthumb 12.4759 -12.553
lclavicle 9.34288e-015 -5.88403e-014
lhumerus -30.7961 19.6646 83.2397
lradius 23.7232
lwrist -11.8319
lhand -5.08423 30.9192
lfingers 7.12502
lthumb 20.7125 59.8339
rfemur -7.50976 3.2785 27.6606
rtibia 32.1503
rfoot -30.0007 -10.1323
rtoes 18.5652
lfemur -42.2437 -9.31457 -5.28537
ltibia 50.5419
lfoot -17.1559 -1.87575
ltoes -2.69678
134
root 11.128 17.5391 -35.9329 11.815 -19.9563 -4.41179
lowerback 8.55506 0.242054 0.526176
upperback -1.9348 0.665409 4.48484
thorax -6.90046 0.401613 4.34132
lowerneck -14.6173 -4.77215 -13.058
upperneck 18.0058 -5.79465 10.7418
head 8.72729 -2.5879 5.13976
rclavicle -6.65929e-015 3.26007e-014
rhumerus -33.8698 -11.8957 -74.7633
rradius 30.4236
rwrist -13.667
rhand -13.4985 17.0458
rfingers 7.12502
rthumb 12.6126 -12.5534
lclavicle -6.65929e-015 3.26007e-014
lhumerus -31.1586 19.727 83.4464
lradius 24.0613
lwrist -11.4696
lhand -4.98989 31.2449
lfingers 7.12502
lthumb 20.8031 60.1497
rfemur -6.91951 3.41835 27.3519
rtibia 31.6635
rfoot -29.8213 -9.88508
rtoes 17.75
lfemur -42.1199 -9.71256 -5.07546
ltibia 49.638
lfoot -16.7246 -1.63797
ltoes -1.53252
135
root 11.1284 17.5436 -35.8302 11.9557 -20.3069 -4.39555
lowerback 8.49285 0.339705 0.669862
upperback -1.76034 0.79458 4.36154
thorax -6.68364 0.45298 4.10535
lowerneck -14.8031 -4.90022 -13.0606
upperneck 17.9855 -5.9799 10.8929
head 8.78407 -2.65488 5.1676
rclavicle -1.21259e-014 1.43125e-014
rhumerus -33.6015 -11.9256 -74.8589
rradius 30.464
rwrist -13.5379
rhand -13.4796 17.1335
rfingers 7.12502
rthumb 12.6308 -12.4646
lclavicle -1.21259e-014 1.43125e-014
lhumerus -30.7641 19.4683 83.5567
lradius 24.2134
lwrist -10.1133
lhand -5.67724 31.404
lfingers 7.12502
lthumb 20.1426 60.3798
rfemur -6.53848 3.54341 27.1149
rtibia 31.2519
rfoot -29.8237 -9.65662
rtoes 18.1877
lfemur -42.1968 -10.2522 -4.78343
ltibia 48.7697
lfoot -16.5025 -1.51207
ltoes -0.0861036
136
root 11.1288 17.5418 -35.737 12.2098 -20.5665 -4.43469
lowerback 8.69254 0.720195 0.990534
upperback -1.37337 1.3087 4.03285
thorax -6.40443 0.682099 3.49549
lowerneck -16.7658 -5.50853 -12.5071
upperneck 18.6642 -6.77643 10.8886
head 9.46538 -2.93197 4.95997
rclavicle -4.85035e-014 -8.74653e-015
rhumerus -32.8747 -13.2124 -74.9291
rradius 30.5445
rwrist -13.5538
rhand -13.43 17.183
rfingers 7.12502
rthumb 12.6787 -12.4121
lclavicle -4.85035e-014 -8.74653e-015
lhumerus -29.3059 18.4653 83.9487
lradius 24.1889
lwrist -9.94816
lhand -5.43427 31.8731
lfingers 7.12502
lthumb 20.3761 60.8241
rfemur -6.2805 3.70706 26.948
rtibia 30.8377
rfoot -29.8054 -9.46743
rtoes 18.7864
lfemur -42.4812 -10.6648 -4.43034
ltibia 47.9626
lfoot -17.6507 -1.06324
ltoes -3.79379
137
root 11.1273 17.5405 -35.6538 12.4966 -20.7744 -4.48469
lowerback 8.94226 0.403803 0.594211
upperback -2.02669 0.905678 4.48119
thorax -7.23769 0.52038 4.26849
lowerneck -14.5509 -4.84294 -13.3992
upperneck 18.5452 -5.91778 10.9937
head 8.93354 -2.65173 5.28505
rclavicle 2.08724e-014 -2.46493e-014
rhumerus -33.6904 -11.3515 -74.6326
rradius 30.5852
rwrist -13.6655
rhand -13.3886 17.2804
rfingers 7.12502
rthumb 12.7186 -12.3123
lclavicle 2.08724e-014 -2.46493e-014
lhumerus -31.0554 19.7311 83.4145
lradius 24.4233
lwrist -10.0887
lhand -5.46686 31.6745
lfingers 7.12502
lthumb 20.3448 60.6288
rfemur -6.07852 3.84878 26.8217
rtibia 30.4773
rfoot -29.4813 -9.29262
rtoes 18.7429
lfemur -42.8716 -10.8065 -4.10246
ltibia 47.2305
lfoot -17.2495 -1.50449
ltoes -2.56099
